# xmcd
#
# Track frame offsets: 
#        150
#        17710
#        33072
#        48227
#        66300
#        77777
#        94125
#        108105
#        119507
#        138050
#        154027
#        167060
#        186202
#        186765
#        187525
#        188020
#        188577
#        189315
#        189615
#
# Disc length: 2532 seconds
#
# Revision: 5
# Processed by: cddbd v1.5.2PL0 Copyright (c) Steve Scherf et al.
# Submitted via: ExactAudioCopy v1.3
#
DISCID=eb09e213
DTITLE=Various Artist - CDX  121 October 1995
DYEAR=1995
DGENRE=Country
TTITLE0=The Mavericks feat. Flaco Jimenez - All You Ever Do Is Bring M
TTITLE0=e Down
TTITLE1=Tim McGraw - Can't Be Really Gone
TTITLE2=Faith Hill - It Matters To Me
TTITLE3=Collin Raye - Not That Different
TTITLE4=David Lee Murphy - Out With A Bang
TTITLE5=Sawyer Brown - Round Here
TTITLE6=Lisa Brokop - She Can't Save Him
TTITLE7=Ricky Skaggs - Solid Ground
TTITLE8=Sammy Kershaw - Still Lovin' You
TTITLE9=Prarie Oyster - Such A Lonely One
TTITLE10=Hal Ketchum - Veil Of Tears
TTITLE11=5 Chinese Brothers - The Avalanche Song
TTITLE12=Various Artist - Jingle Demo
TTITLE13=Various Artist - Jingle Demo
TTITLE14=Various Artist - Jingle Demo
TTITLE15=Various Artist - Jingle Demo
TTITLE16=Various Artist - Jingle Demo
TTITLE17=Various Artist - Jingle Demo
TTITLE18=Various Artist - Jingle Demo
EXTD=
EXTT0=
EXTT1=
EXTT2=
EXTT3=
EXTT4=
EXTT5=
EXTT6=
EXTT7=
EXTT8=
EXTT9=
EXTT10=
EXTT11=
EXTT12=
EXTT13=
EXTT14=
EXTT15=
EXTT16=
EXTT17=
EXTT18=
PLAYORDER=
